<?xml version="1.0" encoding="UTF-8"?>
<svg id="Layer_2" xmlns="http://www.w3.org/2000/svg" viewBox="0 0 249.42 206.17">
  <defs>
    <style>
      .cls-1 {
        fill: #ef4136;
        stroke: #fdeb01;
        stroke-miterlimit: 10;
      }

      .cls-2 {
        fill: #231f20;
        font-family: Bookmania-Semibold, Bookmania;
        font-size: 27.93px;
        font-weight: 600;
        text-decoration: underline;
      }
    </style>
  </defs>
  <g id="Layer_1-2" data-name="Layer_1">
    <polygon class="cls-1" points="5.1 61.73 46.28 65.84 14.25 27.3 59.34 48.8 51.03 17.07 75.76 38.93 76.71 6.37 96.3 33.18 105.9 1.99 125.86 33.6 138.82 1.4 150.48 33.49 165.84 6.7 169.36 36.55 192.1 17.32 187.73 47.17 224.86 23.46 206.03 62.21 242.08 59.48 213.35 81.44 247.95 94.08 213.63 106.3 242.64 124.73 207.76 126.06 230.81 155.35 193.85 140.35 211.57 190.46 177.11 151.03 176.25 184.21 152.76 155.26 149.82 195.89 124.01 159.95 114.18 195.38 98.74 161.83 81.69 204.15 76.35 157.92 46.35 187.74 57.02 150.36 20.95 166.69 40.48 130.89 4.12 131.55 34.97 109.16 1.58 96.05 36.71 86.39 5.1 61.73"/>
    <text class="cls-2" transform="translate(41.61 132.29) rotate(-17.35)"><tspan x="0" y="0">Register now!</tspan></text>
  </g>
</svg>